<svg xmlns="http://www.w3.org/2000/svg" width="573.699" height="573.699"><path fill="#D91C1C" d="M305.949 424.6V133.9c0-11.5-7.6-19.1-19.099-19.1-11.5 0-19.1 9.6-19.1 19.1v290.7c-23 7.701-38.2 28.701-38.2 53.5 0 32.5 24.9 57.4 57.4 57.4 32.499 0 57.399-24.9 57.399-57.4-.099-24.799-15.4-45.799-38.4-53.5z"/><path fill="#FFFFFF" d="M344.25 401.699V57.4c0-32.5-24.9-57.4-57.4-57.4s-57.4 26.8-57.4 57.4v344.2c-23 17.201-38.2 45.9-38.2 76.5 0 53.5 42.1 95.6 95.6 95.6 53.5 0 95.599-42.1 95.599-95.6 0-30.6-15.299-59.2-38.199-76.401zm-57.4 153c-42.1 0-76.5-34.398-76.5-76.5 0-28.699 15.3-53.5 38.2-66.898V57.4c0-21 17.2-38.2 38.2-38.2s38.199 17.2 38.199 38.2v353.799c23 13.4 38.201 38.201 38.201 66.9.2 42.1-34.201 76.6-76.3 76.6z"/></svg>